# xmcd CD database file
#
# Track frame offsets:
#	150
#	11290
#	23545
#	38292
#	49920
#	63927
#	79492
#	93927
#	106247
#	116425
#	129015
#	142077
#
# Disc length: 2063 seconds
#
# Revision: 0
# Processed by: cddbd v1.5.2PL0 Copyright (c) Steve Scherf et al.
# Submitted via: CDex 1.51
#
DISCID=87080d0c
DTITLE=Moonlight In Vermont - The Johnny Smith Quintet
DYEAR=1997
DGENRE=Jazz
TTITLE0=Where Or When
TTITLE1=Tabu
TTITLE2=Moonlight In Vermont
TTITLE3=Jaguar
TTITLE4=Stars Fell On Alabama
TTITLE5=Tenderly
TTITLE6=A Ghost Of A Chance
TTITLE7=Vilia
TTITLE8=Cavu
TTITLE9=I'll Be Around
TTITLE10=Yesterdays
TTITLE11=Cherokee
EXTD=YEAR: 1997
EXTT0=
EXTT1=
EXTT2=
EXTT3=
EXTT4=
EXTT5=
EXTT6=
EXTT7=
EXTT8=
EXTT9=
EXTT10=
EXTT11=
PLAYORDER=
